<svg xmlns="http://www.w3.org/2000/svg" xmlns:xlink="http://www.w3.org/1999/xlink" viewBox="0 0 32 32" fill="#FFFFFF">
  <path d="M16 5C12.144531 5 9 8.144531 9 12C9 14.410156 10.230469 16.550781 12.09375 17.8125C8.527344 19.34375 6 22.882813 6 27L8 27C8 24.109375 9.527344 21.59375 11.8125 20.1875C12.484375 21.835938 14.121094 23 16 23C17.878906 23 19.515625 21.835938 20.1875 20.1875C22.472656 21.59375 24 24.109375 24 27L26 27C26 22.882813 23.472656 19.34375 19.90625 17.8125C21.769531 16.550781 23 14.410156 23 12C23 8.144531 19.855469 5 16 5 Z M 16 7C18.773438 7 21 9.226563 21 12C21 14.773438 18.773438 17 16 17C13.226563 17 11 14.773438 11 12C11 9.226563 13.226563 7 16 7 Z M 16 19C16.820313 19 17.601563 19.117188 18.34375 19.34375C17.996094 20.308594 17.089844 21 16 21C14.910156 21 14.003906 20.308594 13.65625 19.34375C14.398438 19.117188 15.179688 19 16 19Z" fill="#FFFFFF" />
</svg>