<svg id="Layer_1" enable-background="new 0 0 511.888 511.888" height="512" viewBox="0 0 511.888 511.888" width="512" xmlns="http://www.w3.org/2000/svg"><g><path d="m507.823 204.107-63.717-46.307c-3.195-2.322-7.458-2.547-10.879-.571l-59.963 34.619h-78.095c64.678-26.992 81.546-113.537 31.485-162.712-37.222-38.79-104.199-38.796-141.42.001-50.056 49.174-33.196 135.722 31.484 162.711h-78.094l-59.963-34.619c-3.421-1.975-7.684-1.752-10.879.571l-63.716 46.307c-5.796 3.957-5.299 13.42.879 16.749l81 46.765v234.227c0 5.522 4.477 10 10 10h320c5.523 0 10-4.478 10-10v-234.227l81-46.765c6.178-3.329 6.673-12.792.878-16.749zm-401.879 187.74h140v60h-140zm35.353-180h96.167l3.766 6.527c3.096 5.351 8.651 8.521 14.822 8.471 6.081-.045 11.699-3.342 14.681-8.611l3.686-6.387h96.173l26.667 40h-282.629zm34.647-112.002c0-21.368 8.322-41.458 23.432-56.567 29.778-31.036 83.36-31.035 113.137 0 31.036 29.777 31.034 83.36 0 113.136-10.453 10.453-23.536 17.79-37.836 21.217-2.67.64-4.959 2.35-6.331 4.728l-12.404 21.495-12.404-21.496c-1.372-2.378-3.661-4.088-6.331-4.728-14.296-3.427-27.378-10.763-37.831-21.216-15.11-15.11-23.432-35.199-23.432-56.569zm-101.658 77.952 47.422 27.378-28.883 43.325-64.546-37.265zm31.658 314.05v-20h150c5.523 0 10-4.478 10-10v-80c0-5.522-4.477-10-10-10h-150v-100h300v220zm313.12-243.347-28.883-43.324 47.422-27.378 46.008 33.438z"/><path d="m215.944 411.847h-80c-13.254.492-13.244 19.513 0 20h80c13.254-.492 13.244-19.512 0-20z"/><path d="m245.944 129.845c.492 13.254 19.513 13.244 20 0v-20h20c13.254-.492 13.244-19.513 0-20h-20v-20c-.492-13.254-19.513-13.244-20 0v20h-20c-13.254.492-13.244 19.513 0 20h20z"/></g></svg>