<svg xmlns="http://www.w3.org/2000/svg" xmlns:xlink="http://www.w3.org/1999/xlink" viewBox="0 0 50 50" fill="#FFFFFF">
  <path d="M47.199219 3L2.800781 3C1.257813 3 0 4.257813 0 5.800781L0 46C0 46.554688 0.449219 47 1 47L49 47C49.554688 47 50 46.554688 50 46L50 5.800781C50 4.257813 48.742188 3 47.199219 3 Z M 13 39L10 39L10 37L13 37 Z M 13 33L10 33L10 31L13 31 Z M 13 27L10 27L10 25L13 25 Z M 40 39L17 39L17 37L40 37 Z M 40 33L17 33L17 31L40 31 Z M 40 27L17 27L17 25L40 25 Z M 40 19L10 19L10 17L40 17 Z M 48 11L2 11L2 5.800781C2 5.351563 2.351563 5 2.800781 5L47.199219 5C47.648438 5 48 5.351563 48 5.800781Z" fill="#FFFFFF" />
</svg>