<svg xmlns="http://www.w3.org/2000/svg" xmlns:xlink="http://www.w3.org/1999/xlink" viewBox="0 0 16 16" fill="#FFFFFF">
  <path d="M2.5 1C1.6774686 1 1 1.6774686 1 2.5L1 3.5L1 13.5L1 14L15 14L15 13.5L15 13L15 5.75C15 5.3414686 14.658531 5 14.25 5L11 5L11 3.5L11 2.5C11 1.6774686 10.322531 1 9.5 1L8.5 1L3.5 1L2.5 1 z M 2.5 2L3.5 2L8.5 2L9.5 2C9.7814686 2 10 2.2185314 10 2.5L10 3.5L10 13L7 13L7 11L5 11L5 13L2 13L2 3.5L2 2.5C2 2.2185314 2.2185314 2 2.5 2 z M 3 3L3 4L4 4L4 3L3 3 z M 5 3L5 4L7 4L7 3L5 3 z M 8 3L8 4L9 4L9 3L8 3 z M 3 5L3 6L4 6L4 5L3 5 z M 5 5L5 6L7 6L7 5L5 5 z M 8 5L8 6L9 6L9 5L8 5 z M 11 6L14 6L14 13L11 13L11 6 z M 3 7L3 8L4 8L4 7L3 7 z M 5 7L5 8L7 8L7 7L5 7 z M 8 7L8 8L9 8L9 7L8 7 z M 12 7L12 8L13 8L13 7L12 7 z M 3 9L3 10L4 10L4 9L3 9 z M 5 9L5 10L7 10L7 9L5 9 z M 8 9L8 10L9 10L9 9L8 9 z M 12 9L12 10L13 10L13 9L12 9 z M 3 11L3 12L4 12L4 11L3 11 z M 8 11L8 12L9 12L9 11L8 11 z M 12 11L12 12L13 12L13 11L12 11 z" fill="#FFFFFF" />
</svg>