<svg xmlns="http://www.w3.org/2000/svg" xmlns:xlink="http://www.w3.org/1999/xlink" viewBox="0 0 26 26" fill="#FFFFFF">
  <path d="M18.65625 2.21875C18.546875 2.214844 18.441406 2.226563 18.34375 2.28125C18.144531 2.386719 18.03125 2.585938 18.03125 2.8125L18.03125 5.4375C18.03125 5.4375 0.9375 5.84375 0.71875 6C0.398438 6.226563 0.1875 6.386719 0.1875 7C0.1875 7.613281 0.398438 7.804688 0.71875 8.03125C0.9375 8.1875 18.03125 8.46875 18.03125 8.46875L18.03125 11.15625C18.03125 11.382813 18.144531 11.582031 18.34375 11.6875C18.542969 11.792969 18.78125 11.78125 18.96875 11.65625C21.386719 10.023438 25.695313 7.484375 25.78125 7.375C25.871094 7.265625 25.9375 7.136719 25.9375 7C25.9375 6.863281 25.871094 6.738281 25.78125 6.625C25.695313 6.515625 21.386719 3.945313 18.96875 2.3125C18.875 2.25 18.765625 2.222656 18.65625 2.21875 Z M 7.34375 14.25C7.234375 14.253906 7.125 14.28125 7.03125 14.34375C4.613281 15.976563 0.304688 18.515625 0.21875 18.625C0.128906 18.734375 0.0625 18.863281 0.0625 19C0.0625 19.136719 0.128906 19.261719 0.21875 19.375C0.304688 19.484375 4.613281 22.054688 7.03125 23.6875C7.21875 23.816406 7.457031 23.824219 7.65625 23.71875C7.855469 23.613281 7.96875 23.414063 7.96875 23.1875L7.96875 20.5625C7.96875 20.5625 25.0625 20.15625 25.28125 20C25.601563 19.773438 25.8125 19.613281 25.8125 19C25.8125 18.386719 25.601563 18.195313 25.28125 17.96875C25.0625 17.8125 7.96875 17.53125 7.96875 17.53125L7.96875 14.84375C7.96875 14.617188 7.855469 14.417969 7.65625 14.3125C7.558594 14.257813 7.453125 14.246094 7.34375 14.25Z" fill="#FFFFFF" />
</svg>