<?xml version="1.0" encoding="iso-8859-1"?>
<!-- Generator: Adobe Illustrator 18.0.0, SVG Export Plug-In . SVG Version: 6.00 Build 0)  -->
<!DOCTYPE svg PUBLIC "-//W3C//DTD SVG 1.1//EN" "http://www.w3.org/Graphics/SVG/1.1/DTD/svg11.dtd">
<svg version="1.1" id="Capa_1" xmlns="http://www.w3.org/2000/svg" xmlns:xlink="http://www.w3.org/1999/xlink" x="0px" y="0px"
	 viewBox="0 0 496.183 496.183" style="enable-background:new 0 0 496.183 496.183;" xml:space="preserve">
<g>
	<path d="M214.133,132.762c-7.781-9.227-19.229-14.558-31.287-14.558h-3.505c-12.057,0-23.506,5.33-31.285,14.558
		c-7.767,9.228-11.077,21.415-9.02,33.312l15.499,89.783c0.802,4.661,4.856,8.071,9.581,8.071h33.955
		c4.726,0,8.779-3.41,9.582-8.071l15.497-89.783C225.21,154.177,221.898,141.99,214.133,132.762z"/>
	<path d="M181.093,275.471c-16.223,0-29.373,13.15-29.373,29.365c0,16.221,13.15,29.371,29.373,29.371
		c16.223,0,29.373-13.15,29.373-29.371C210.466,288.622,197.315,275.471,181.093,275.471z"/>
	<path d="M322.878,429.868c-5.549,2.709-11.656,4.123-17.865,4.123c-3.549,0-7.102-0.465-10.574-1.398
		c-10.385-2.797-19.391-9.734-24.648-18.955l-2.779-4.822H41.078l-0.74-362.604l280.69-0.819v175.899
		c0.611,0.264,1.254,0.369,1.85,0.658c1.432-20.69,18.424-37.073,39.309-37.731V45.392c0-22.243-18.102-40.339-40.338-40.339H40.338
		C18.103,5.053,0,23.149,0,45.392v405.399c0,22.242,18.103,40.338,40.338,40.338h281.511c16.352,0,30.418-9.831,36.736-23.867
		C339.388,464.932,324.229,449.346,322.878,429.868z M181.093,472.608c-13.92,0-25.208-11.286-25.208-25.209
		c0-13.923,11.288-25.209,25.208-25.209c13.924,0,25.21,11.286,25.21,25.209C206.303,461.322,195.017,472.608,181.093,472.608z"/>
	<path d="M488.185,345.793l-14.682-8.474c0.484-3.787,1.174-7.491,1.174-11.406c0-3.916-0.689-7.628-1.174-11.414l14.682-8.474
		c3.662-2.13,6.365-5.619,7.443-9.718c1.108-4.091,0.543-8.457-1.592-12.139l-19.424-33.642c-2.957-5.136-8.342-8.006-13.873-8.006
		c-2.717,0-5.469,0.69-7.99,2.146l-14.584,8.425c-6.141-4.663-12.666-8.811-19.854-11.832v-16.481
		c0-8.842-7.172-15.995-15.996-15.995H363.47c-8.855,0-15.996,7.153-15.996,15.995v16.481c-7.199,3.021-13.709,7.169-19.869,11.832
		l-14.584-8.433c-2.457-1.415-5.223-2.146-8.008-2.146c-1.395,0-2.779,0.184-4.146,0.547c-4.084,1.109-7.588,3.777-9.693,7.459
		l-19.42,33.65c-4.422,7.653-1.803,17.435,5.854,21.856l14.676,8.474c-0.498,3.786-1.174,7.498-1.174,11.414
		c0,3.915,0.676,7.619,1.174,11.398l-14.676,8.475c-7.656,4.42-10.275,14.202-5.854,21.855l19.42,33.657
		c2.105,3.683,5.609,6.351,9.693,7.452c1.367,0.369,2.766,0.546,4.146,0.546c2.801,0,5.551-0.724,8.008-2.138l14.584-8.44
		c6.16,4.677,12.635,8.825,19.869,11.849v16.479c0,8.842,7.141,15.997,15.996,15.997h38.846c8.824,0,15.996-7.155,15.996-15.997
		v-16.479c7.203-3.023,13.713-7.172,19.854-11.849l14.584,8.44c2.457,1.414,5.209,2.138,7.99,2.138c1.398,0,2.781-0.177,4.15-0.546
		c4.082-1.102,7.602-3.77,9.723-7.452l19.424-33.649C498.454,359.996,495.835,350.221,488.185,345.793z M382.896,384.015
		c-32.043,0-58.107-26.061-58.107-58.103s26.064-58.102,58.107-58.102c32.041,0,58.1,26.061,58.1,58.102
		S414.936,384.015,382.896,384.015z"/>
	<path d="M382.896,284.273c-22.961,0-41.643,18.683-41.643,41.64c0,22.959,18.682,41.639,41.643,41.639
		c22.955,0,41.639-18.68,41.639-41.639C424.534,302.956,405.851,284.273,382.896,284.273z"/>
</g>
<g>
</g>
<g>
</g>
<g>
</g>
<g>
</g>
<g>
</g>
<g>
</g>
<g>
</g>
<g>
</g>
<g>
</g>
<g>
</g>
<g>
</g>
<g>
</g>
<g>
</g>
<g>
</g>
<g>
</g>
</svg>
