<svg xmlns="http://www.w3.org/2000/svg" xmlns:xlink="http://www.w3.org/1999/xlink" viewBox="0 0 50 50" fill="#FFFFFF">
  <path d="M29 0C27.355469 0 26 1.355469 26 3L26 17L28 17L28 3C28 2.433594 28.433594 2 29 2L47 2C47.5625 2 48 2.4375 48 3L48 45C48 45.5625 47.5625 46 47 46L45 46L45 48L47 48C48.644531 48 50 46.644531 50 45L50 3C50 1.355469 48.644531 0 47 0 Z M 38 8C36.894531 8 36 8.894531 36 10C36 11.105469 36.894531 12 38 12C39.105469 12 40 11.105469 40 10C40 8.894531 39.105469 8 38 8 Z M 16 18C14.355469 18 13 19.355469 13 21L13 24L3 24C1.355469 24 0 25.355469 0 27L0 32.6875C-0.0585938 32.882813 -0.0585938 33.085938 0 33.28125L0 47C0 48.644531 1.355469 50 3 50L41 50C42.644531 50 44 48.644531 44 47L44 33.1875C44.027344 33.054688 44.027344 32.914063 44 32.78125L44 27C44 25.355469 42.644531 24 41 24L31 24L31 21C31 19.355469 29.644531 18 28 18 Z M 16 20L28 20C28.5625 20 29 20.4375 29 21L29 24L15 24L15 21C15 20.4375 15.4375 20 16 20 Z M 3 26L41 26C41.5625 26 42 26.4375 42 27L42 32L37 32C37 30.90625 36.09375 30 35 30L32 30C30.90625 30 30 30.90625 30 32L14 32C14 30.90625 13.09375 30 12 30L9 30C7.90625 30 7 30.90625 7 32L2 32L2 27C2 26.4375 2.4375 26 3 26 Z M 9 32L12 32L12 32.6875C11.941406 32.882813 11.941406 33.085938 12 33.28125L12 36L9 36L9 33.1875C9.027344 33.054688 9.027344 32.914063 9 32.78125 Z M 32 32L35 32L35 32.6875C34.941406 32.882813 34.941406 33.085938 35 33.28125L35 36L32 36L32 33.1875C32.027344 33.054688 32.027344 32.914063 32 32.78125 Z M 2 34L7 34L7 36C7 37.09375 7.90625 38 9 38L12 38C13.09375 38 14 37.09375 14 36L14 34L30 34L30 36C30 37.09375 30.90625 38 32 38L35 38C36.09375 38 37 37.09375 37 36L37 34L42 34L42 47C42 47.5625 41.5625 48 41 48L3 48C2.4375 48 2 47.5625 2 47Z" fill="#FFFFFF" />
</svg>