<svg xmlns="http://www.w3.org/2000/svg" xmlns:xlink="http://www.w3.org/1999/xlink" viewBox="0 0 26 26" fill="#FFFFFF">
  <path d="M12.4375 0.1875L0 5.09375L0 18.53125L15 25.90625L26 18.53125L26 5.09375 Z M 12.46875 2.34375L23.6875 6.375L21.03125 7.78125L9.75 3.40625 Z M 7.03125 4.5L18.6875 9.03125L15.59375 10.65625L3.4375 5.90625 Z M 2.0625 6.4375L15 11.5L15 23.5L14.84375 23.59375L2 17.28125L2 6.46875 Z M 6.5 10.65625L5.03125 12.5625L6 12.875L6 15.625L7 16L7 13.21875L8 13.53125 Z M 10.5 12.03125L9 13.96875L10 14.3125L10 17.34375L11 17.71875L11 14.65625L11.96875 14.96875 Z M 5 16.03125L5 17.25L12 20.5625L12 19.3125Z" fill="#FFFFFF" />
</svg>