<svg xmlns="http://www.w3.org/2000/svg" xmlns:xlink="http://www.w3.org/1999/xlink" viewBox="0 0 32 32" fill="#FFFFFF">
  <path d="M5 6L5 19.5625L2.71875 21.875C2.265625 22.328125 2 22.953125 2 23.59375C2 24.914063 3.085938 26 4.40625 26L27.59375 26C28.914063 26 30 24.914063 30 23.59375C30 22.953125 29.734375 22.328125 29.28125 21.875L27 19.5625L27 6 Z M 7 8L25 8L25 19L7 19 Z M 6.4375 21L25.5625 21L27.875 23.28125C27.953125 23.359375 28 23.484375 28 23.59375C28 23.835938 27.835938 24 27.59375 24L4.40625 24C4.164063 24 4 23.835938 4 23.59375C4 23.484375 4.046875 23.359375 4.125 23.28125Z" fill="#FFFFFF" />
</svg>