<svg xmlns="http://www.w3.org/2000/svg" xmlns:xlink="http://www.w3.org/1999/xlink" viewBox="0 0 32 32" fill="#FFFFFF">
  <path d="M7 4C6.476563 4 5.941406 4.183594 5.5625 4.5625C5.183594 4.941406 5 5.476563 5 6L5 22C5 22.523438 5.183594 23.058594 5.5625 23.4375C5.941406 23.816406 6.476563 24 7 24L13 24L13 26C13 26.523438 13.183594 27.058594 13.5625 27.4375C13.941406 27.816406 14.476563 28 15 28L25 28C25.523438 28 26.058594 27.816406 26.4375 27.4375C26.816406 27.058594 27 26.523438 27 26L27 10C27 9.476563 26.816406 8.941406 26.4375 8.5625C26.058594 8.183594 25.523438 8 25 8L19 8L19 6C19 5.476563 18.816406 4.941406 18.4375 4.5625C18.058594 4.183594 17.523438 4 17 4 Z M 7 6L17 6L17 8L15 8C14.476563 8 13.941406 8.183594 13.5625 8.5625C13.183594 8.941406 13 9.476563 13 10L13 19L10.5 19L10.5 21L13 21L13 22L7 22 Z M 15 10L25 10L25 26L15 26 Z M 18.5 23L18.5 25L21.5 25L21.5 23Z" fill="#FFFFFF" />
</svg>