<svg xmlns="http://www.w3.org/2000/svg" xmlns:xlink="http://www.w3.org/1999/xlink" viewBox="0 0 50 50" fill="#FFFFFF">
  <path d="M8 4C5.792969 4 4 5.792969 4 8L4 17L9 17L9 9L41 9L41 23L46 23L46 8C46 5.792969 44.207031 4 42 4 Z M 2 18C0.898438 18 0 18.898438 0 20L0 44C0 45.101563 0.898438 46 2 46L21 46C22.101563 46 23 45.101563 23 44L23 20C23 18.898438 22.101563 18 21 18 Z M 4 22L19 22L19 40L4 40 Z M 37 24C35.898438 24 35 24.898438 35 26L35 44C35 45.101563 35.898438 46 37 46L48 46C49.101563 46 50 45.101563 50 44L50 26C50 24.898438 49.101563 24 48 24 Z M 39 28L46 28L46 40L39 40 Z M 24 32L24 43L34 43L34 39L30 39L30 36L34 36L34 32 Z M 11.5 41.5C12.050781 41.5 12.5 41.945313 12.5 42.5C12.5 43.054688 12.050781 43.5 11.5 43.5C10.949219 43.5 10.5 43.054688 10.5 42.5C10.5 41.945313 10.949219 41.5 11.5 41.5 Z M 42.5 41.5C43.054688 41.5 43.5 41.945313 43.5 42.5C43.5 43.054688 43.054688 43.5 42.5 43.5C41.945313 43.5 41.5 43.054688 41.5 42.5C41.5 41.945313 41.945313 41.5 42.5 41.5Z" fill="#FFFFFF" />
</svg>