<svg xmlns="http://www.w3.org/2000/svg" xmlns:xlink="http://www.w3.org/1999/xlink" viewBox="0 0 32 32" fill="#FFFFFF">
  <path d="M6 6C4.898438 6 4 6.898438 4 8L4 21C4 22.101563 4.898438 23 6 23L26 23C27.101563 23 28 22.101563 28 21L28 8C28 6.898438 27.101563 6 26 6 Z M 6 8L26 8L26 19L6 19 Z M 16 20C16.550781 20 17 20.449219 17 21C17 21.550781 16.550781 22 16 22C15.449219 22 15 21.550781 15 21C15 20.449219 15.449219 20 16 20 Z M 14.15625 24L14.0625 24.59375C13.957031 25.257813 13.390625 25.75 12.71875 25.75L11 25.75L11 27L21 27L21 25.75L19.28125 25.75C18.609375 25.75 18.042969 25.257813 17.9375 24.59375L17.84375 24Z" fill="#FFFFFF" />
</svg>