<svg xmlns="http://www.w3.org/2000/svg" viewBox="0 0 50 50">
  <path d="M11 2L11 15L5 15C3.346 15 2 16.346 2 18L2 36C2 37.654 3.346 39 5 39L11 39L11 48L39 48L39 39L45 39C46.654 39 48 37.654 48 36L48 18C48 16.346 46.654 15 45 15L39 15L39 2L11 2 z M 13 4L37 4L37 15L13 15L13 4 z M 41 20C42.105 20 43 20.895 43 22C43 23.105 42.105 24 41 24C39.895 24 39 23.105 39 22C39 20.895 39.895 20 41 20 z M 13 30L37 30L37 39L37 46L13 46L13 39L13 30 z M 17 33 A 1.0001 1.0001 0 1 0 17 35L33 35 A 1.0001 1.0001 0 1 0 33 33L17 33 z M 17 37 A 1.0001 1.0001 0 1 0 17 39L29 39 A 1.0001 1.0001 0 1 0 29 37L17 37 z M 17 41 A 1.0001 1.0001 0 1 0 17 43L33 43 A 1.0001 1.0001 0 1 0 33 41L17 41 z" fill="#FFFFFF" />
</svg>