<svg xmlns="http://www.w3.org/2000/svg" viewBox="0 0 50 50">
  <path d="M11 4C10.765625 4 10.554688 4.070313 10.375 4.21875L4.625 9L24 9L24 4 Z M 26 4L26 9L45.375 9L39.65625 4.21875C39.476563 4.070313 39.234375 4 39 4 Z M 4 11L4 45C4 45.554688 4.449219 46 5 46L45 46C45.554688 46 46 45.554688 46 45L46 11 Z M 21.5 16L28.5 16C29.300781 16 30 16.699219 30 17.5C30 18.300781 29.300781 19 28.5 19L21.5 19C20.699219 19 20 18.300781 20 17.5C20 16.699219 20.699219 16 21.5 16 Z M 31 31L34 34L32 34L32 38L30 38L30 34L28 34 Z M 38 31L41 34L39 34L39 38L37 38L37 34L35 34 Z M 28 39L41 39L41 41L28 41Z" fill="#FFFFFF" />
</svg>