<svg xmlns="http://www.w3.org/2000/svg" viewBox="0 0 48 48">
  <path d="M12.5 4C10.015 4 8 6.015 8 8.5L8 39.5C8 41.985 10.015 44 12.5 44L25 44L25 38.5C25 36.567 26.567 35 28.5 35C29.045 35 29.553672 35.135422 30.013672 35.357422C30.090672 33.492422 31.616 32 33.5 32C34.045 32 34.553672 32.135422 35.013672 32.357422C35.090672 30.492422 36.616 29 38.5 29C39.039 29 39.544 29.131609 40 29.349609L40 20L28.5 20C26.015 20 24 17.985 24 15.5L24 4L12.5 4 z M 27 4.8789062L27 15.5C27 16.327 27.673 17 28.5 17L39.121094 17L27 4.8789062 z M 43.476562 28.978516 A 1.50015 1.50015 0 0 0 42 30.5L42 44.5 A 1.50015 1.50015 0 1 0 45 44.5L45 30.5 A 1.50015 1.50015 0 0 0 43.476562 28.978516 z M 38.476562 30.978516 A 1.50015 1.50015 0 0 0 37 32.5L37 44.5 A 1.50015 1.50015 0 1 0 40 44.5L40 32.5 A 1.50015 1.50015 0 0 0 38.476562 30.978516 z M 33.476562 33.978516 A 1.50015 1.50015 0 0 0 32 35.5L32 44.5 A 1.50015 1.50015 0 1 0 35 44.5L35 35.5 A 1.50015 1.50015 0 0 0 33.476562 33.978516 z M 28.476562 36.978516 A 1.50015 1.50015 0 0 0 27 38.5L27 44.5 A 1.50015 1.50015 0 1 0 30 44.5L30 38.5 A 1.50015 1.50015 0 0 0 28.476562 36.978516 z" fill="#FFFFFF" />
</svg>