<svg xmlns="http://www.w3.org/2000/svg" xmlns:xlink="http://www.w3.org/1999/xlink" viewBox="0 0 26 26" fill="#FFFFFF">
  <path d="M13 0C5.839844 0 0 5.839844 0 13C0 20.164063 5.839844 26 13 26C19.554688 26 25 21.113281 25.875 14.78125C25.976563 14.238281 25.773438 13.679688 25.339844 13.332031C24.90625 12.984375 24.320313 12.90625 23.808594 13.125C23.300781 13.339844 22.953125 13.824219 22.90625 14.375C22.234375 19.246094 18.070313 23 13 23C7.460938 23 3 18.542969 3 13C3 7.460938 7.460938 3 13 3C16.234375 3 19.109375 4.535156 20.9375 6.90625L19.15625 8.6875C19.003906 8.839844 18.96875 9.078125 19.03125 9.28125C19.089844 9.484375 19.257813 9.613281 19.46875 9.65625C22.164063 10.1875 25.277344 9.953125 25.40625 9.9375C25.539063 9.921875 25.660156 9.839844 25.75 9.75C25.839844 9.660156 25.917969 9.570313 25.9375 9.4375C25.953125 9.308594 26.1875 6.167969 25.65625 3.46875C25.617188 3.261719 25.480469 3.09375 25.28125 3.03125C25.078125 2.96875 24.835938 3.007813 24.6875 3.15625L23.0625 4.78125C20.679688 1.871094 17.046875 0 13 0Z" fill="#FFFFFF" />
</svg>