<svg xmlns="http://www.w3.org/2000/svg" xmlns:xlink="http://www.w3.org/1999/xlink" viewBox="0 0 32 32" fill="#FFFFFF">
  <path d="M16 3C8.832031 3 3 8.832031 3 16C3 23.167969 8.832031 29 16 29C23.167969 29 29 23.167969 29 16C29 8.832031 23.167969 3 16 3 Z M 16 5C22.085938 5 27 9.914063 27 16C27 22.085938 22.085938 27 16 27C9.914063 27 5 22.085938 5 16C5 9.914063 9.914063 5 16 5 Z M 16 8C13.25 8 11 10.25 11 13C11 14.515625 11.707031 15.863281 12.78125 16.78125C10.53125 17.949219 9 20.300781 9 23L11 23C11 20.226563 13.226563 18 16 18C18.773438 18 21 20.226563 21 23L23 23C23 20.300781 21.46875 17.949219 19.21875 16.78125C20.292969 15.863281 21 14.515625 21 13C21 10.25 18.75 8 16 8 Z M 16 10C17.667969 10 19 11.332031 19 13C19 14.667969 17.667969 16 16 16C14.332031 16 13 14.667969 13 13C13 11.332031 14.332031 10 16 10Z" fill="#FFFFFF" />
</svg>