<svg xmlns="http://www.w3.org/2000/svg" xmlns:xlink="http://www.w3.org/1999/xlink" viewBox="0 0 26 26" fill="#FFFFFF">
  <path d="M16.625 0.03125C16.351563 0.03125 16.09375 0.289063 16.09375 0.59375L16.09375 4.3125C16.09375 4.3125 15.460938 0.75 15.15625 0.84375C14.15625 1.148438 13.324219 1.738281 12.75 2.5C14.441406 3.433594 15.636719 5.007813 16 6.84375C16.058594 6.882813 16.101563 6.953125 16.15625 7L23.3125 7C23.3125 4.832031 22.125 5.554688 22.125 5.0625C22.125 3.136719 20.796875 1.4375 18.84375 0.84375C18.539063 0.75 17.90625 4.3125 17.90625 4.3125L17.90625 0.59375C17.90625 0.289063 17.652344 0.03125 17.375 0.03125 Z M 8.625 3.03125C8.351563 3.03125 8.09375 3.289063 8.09375 3.59375L8.09375 7.3125C8.09375 7.3125 7.460938 3.75 7.15625 3.84375C5.207031 4.4375 3.875 6.140625 3.875 8.0625C3.875 8.554688 2.6875 7.851563 2.6875 10L15.3125 10C15.3125 7.832031 14.125 8.554688 14.125 8.0625C14.125 6.136719 12.796875 4.4375 10.84375 3.84375C10.539063 3.75 9.90625 7.3125 9.90625 7.3125L9.90625 3.59375C9.90625 3.289063 9.652344 3.03125 9.375 3.03125 Z M 16.96875 8.0625C17.191406 8.589844 17.3125 9.253906 17.3125 10C17.3125 11.046875 16.496094 11.882813 15.46875 11.96875C15.308594 14.109375 14.566406 15.335938 13.71875 16.3125C16.203125 17.292969 19.90625 19.25 19.90625 22.28125L19.90625 22.78125C23.148438 22.539063 25.90625 21.792969 25.90625 19.9375L25.90625 19.28125C25.90625 17.472656 22.738281 15.71875 19.90625 14.78125C19.777344 14.738281 18.957031 14.363281 19.46875 12.8125L19.4375 12.8125C20.640625 11.574219 21.5 10.734375 21.5 8.0625 Z M 4.53125 11.0625C4.53125 13.761719 5.351563 14.578125 6.5625 15.8125C7.085938 17.179688 6.164063 17.710938 5.96875 17.78125C3.269531 18.757813 0.09375 20.523438 0.09375 22.28125L0.09375 22.9375C0.09375 25.332031 4.734375 25.875 9.03125 25.875C13.335938 25.875 17.90625 25.332031 17.90625 22.9375L17.90625 22.28125C17.90625 20.472656 14.738281 18.71875 11.90625 17.78125C11.777344 17.738281 10.957031 17.363281 11.46875 15.8125L11.4375 15.8125C12.640625 14.574219 13.5 13.734375 13.5 11.0625Z" fill="#FFFFFF" />
</svg>